{"title":"The Heat 2013 TS AAC x264-SSDD","uid":8660490,"size":472054993,"categoryP":"video","categoryS":"movies","magnet":"?xt=urn:btih:1a7cde98f5ed121a4cc873908c048587cff90cb4&amp;dn=The+Heat+2013+TS+AAC+x264-SSDD&amp;tr=udp%3A%2F%2Ftracker.openbittorrent.com%3A80&amp;tr=udp%3A%2F%2Fopen.demonii.com%3A1337&amp;tr=udp%3A%2F%2Ftracker.coppersurfer.tk%3A6969&amp;tr=udp%3A%2F%2Fexodus.desync.com%3A6969","seeders":1,"leechers":0,"uploader":"ValidusVyto","files":-1,"time":1373310165,"description":"_______ Visit us at our Semi Public Bittorrent Community ________\n   &lt;a href=&quot;\nhttp://p2pdl.com&quot; rel=&quot;nofollow&quot; target=&quot;_NEW&quot;&gt;\nhttp://p2pdl.com&lt;/a&gt;  _____________________________ &lt;a href=&quot; http://p2pdl.com&quot; rel=&quot;nofollow&quot; target=&quot;_NEW&quot;&gt; http://p2pdl.com&lt;/a&gt;\n\n\nInfo:\nCountry:                     USA\nLanguage:                  English\nRelease Date:             28 June 2013 (USA)\nAlso Known As:         Armadas e Perigosas\nFilming Locations:        Boston, Massachusetts, USA  &lt;a href=&quot;\nhttp://www.imdb.com/title/tt2404463/&quot; rel=&quot;nofollow&quot; target=&quot;_NEW&quot;&gt;\nhttp://www.imdb.com/title/tt2404463/&lt;/a&gt;\n\nTech Info:\n\nGeneral\nComplete name                            : The Heat 2013 TS AAC x264-SSDD.mp4\nFormat                                   : MPEG-4\nFormat profile                           : Base Media\nCodec ID                                 : isom\nFile size                                : 450 MiB\nDuration                                 : 1h 49mn\nOverall bit rate mode                    : Variable\nOverall bit rate                         : 573 Kbps\n\nVideo\nID                                       : 1\nFormat                                   : AVC\nFormat/Info                              : Advanced Video Codec\nFormat profile                           : &lt;a class=&quot;__cf_email__&quot; href=&quot;/cdn-cgi/l/email-protection&quot; data-cfemail=&quot;4f072628270f037b617e&quot;&gt;[email&amp;#160;protected]&lt;/a&gt;&lt;script cf-hash='f9e31' type=&quot;text/javascript&quot;&gt;\n/* &lt;![CDATA[ */!function(){try{var t=&quot;currentScript&quot;in document?document.currentScript:function(){for(var t=document.getElementsByTagName(&quot;script&quot;),e=t.length;e--;)if(t[e].getAttribute(&quot;cf-hash&quot;))return t[e]}();if(t&amp;&amp;t.previousSibling){var e,r,n,i,c=t.previousSibling,a=c.getAttribute(&quot;data-cfemail&quot;);if(a){for(e=&quot;&quot;,r=parseInt(a.substr(0,2),16),n=2;a.length-n;n+=2)i=parseInt(a.substr(n,2),16)^r,e+=String.fromCharCode(i);e=document.createTextNode(e),c.parentNode.replaceChild(e,c)}}}catch(u){}}();/* ]]&gt; */&lt;/script&gt;\nFormat settings, CABAC                   : Yes\nFormat settings, ReFrames                : 4 frames\nCodec ID                                 : avc1\nCodec ID/Info                            : Advanced Video Coding\nDuration                                 : 1h 49mn\nBit rate                                 : 521 Kbps\nMaximum bit rate                         : 1 430 Kbps\nWidth                                    : 640 pixels\nHeight                                   : 272 pixels\nDisplay aspect ratio                     : 2.35:1\nFrame rate mode                          : Constant\nFrame rate                               : 23.976 fps\nColor space                              : YUV\nChroma subsampling                       : 4:2:0\nBit depth                                : 8 bits\nScan type                                : Progressive\nBits/(Pixel*Frame)                       : 0.125\nStream size                              : 409 MiB (91%)\nWriting library                          : x264 core 133 r2334 a3ac64b\n\nAudio\nID                                       : 2\nFormat                                   : AAC\nFormat/Info                              : Advanced Audio Codec\nFormat profile                           : LC\nCodec ID                                 : 40\nDuration                                 : 1h 49mn\nBit rate mode                            : Variable\nBit rate                                 : 48.0 Kbps\nMaximum bit rate                         : 52.7 Kbps\nChannel(s)                               : 2 channels\nChannel positions                        : Front: L R\nSampling rate                            : 48.0 KHz\nCompression mode                         : Lossy\nStream size                              : 37.7 MiB (8%)\n\nPlot:\n\nAshburn, an FBI agent is extremely ambitious and has her eye on a promotion but she doesn't get along with her co-workers. She is sent to Boston to find out who an elusive drug dealer is by getting to the man who is fronting for him and is told that she'll have a good shot at the promotion if she finds the dealer. When she arrives in Boston she learns that the dealer has been eliminating his competition and taking over their operations. She learns that a dealer is Boston PD custody and goes to see him to ask him what he knows about the dealer but is warned that the cop who arrested the dealer, Mullins is very territorial. And she is not exactly sociable. When the two meet they don't get along. When Mullins learns what Ashburn is in Boston for decides to find the dealer herself. Ahsburn is told by her boss to work with Mullins but won't be easy because Ashburn does things by the book while Mullins does things her way.\n &lt;a href=&quot;\nhttp://lookpic.com/O/i2/1681/14nsXQYj.png&quot; rel=&quot;nofollow&quot; target=&quot;_NEW&quot;&gt;\nhttp://lookpic.com/O/i2/1681/14nsXQYj.png&lt;/a&gt;\n &lt;a href=&quot;\nhttp://lookpic.com/O/i2/183/MX45veJB.png&quot; rel=&quot;nofollow&quot; target=&quot;_NEW&quot;&gt;\nhttp://lookpic.com/O/i2/183/MX45veJB.png&lt;/a&gt;\n &lt;a href=&quot;\nhttp://lookpic.com/O/i2/1884/2SrU991p.png&quot; rel=&quot;nofollow&quot; target=&quot;_NEW&quot;&gt;\nhttp://lookpic.com/O/i2/1884/2SrU991p.png&lt;/a&gt;\n &lt;a href=&quot;\nhttp://lookpic.com/O/i2/519/RX7zM0bt.png&quot; rel=&quot;nofollow&quot; target=&quot;_NEW&quot;&gt;\nhttp://lookpic.com/O/i2/519/RX7zM0bt.png&lt;/a&gt;","torrent":{"xt":"urn:btih:1a7cde98f5ed121a4cc873908c048587cff90cb4","amp;dn":"The+Heat+2013+TS+AAC+x264-SSDD","amp;tr":["udp%3A%2F%2Ftracker.openbittorrent.com%3A80","udp%3A%2F%2Fopen.demonii.com%3A1337","udp%3A%2F%2Ftracker.coppersurfer.tk%3A6969","udp%3A%2F%2Fexodus.desync.com%3A6969"],"infoHash":"1a7cde98f5ed121a4cc873908c048587cff90cb4","infoHashBuffer":{"type":"Buffer","data":[26,124,222,152,245,237,18,26,76,200,115,144,140,4,133,135,207,249,12,180]},"announce":[],"urlList":[]}}